<svg xmlns="http://www.w3.org/2000/svg" xmlns:xlink="http://www.w3.org/1999/xlink" viewBox="8848 6073 1920 2739"><defs><style>.a{clip-path:url(#c);}.b,.c{stroke:#707070;}.b{fill:url(#a);}.c{fill:#fff;}.d{fill:#fffcfc;}</style><linearGradient id="a" y1="0.204" x2="1" y2="0.875" gradientUnits="objectBoundingBox"><stop offset="0" stop-color="#2794a1"/><stop offset="0.347" stop-color="#2eb1c1"/><stop offset="1" stop-color="#36cee1"/></linearGradient><clipPath id="c"><rect x="8848" y="6073" width="1920" height="2739"/></clipPath></defs><g id="b" class="a"><rect class="d" x="8848" y="6073" width="1920" height="2739"/><path class="b" d="M4704.542,3316.064c5.5-18.37,68.412-51.609-198.029,190.6-289.72,263.381-538.658,936.437-596.668,1243.058,8.287,281.76,515.3,1082.156,794.7,1284.1,291.029,210.333,80.354,128.046,83.73,174.426,6.621,90.94-83.73-2357.974-83.73-2357.974S4693.059,3354.415,4704.542,3316.064Z" transform="translate(6117.009 2700.735)"/><path class="c" d="M609.45,532.4c-4.12-.577-25.551-3.936-29.764-7.626-2.621-2.3-3.881,1.356-9.783-1.5-14.393-6.968-21.931-.816-38.391-9.943-6.17-3.421-3.444-1.183-13.852-3.917-5.549-1.457-10.163-5.391-16.156-5.751-.6-.036-178.875-58.221-158.441-69.317,4.178-2.269,5.726-6.346,8.052-9.857,26.8-40.459,25.544-29.118,35.832-43.649,1.026-1.449,1.864-.87,2.544.307,1.61,2.784,4.371,4.825,5.15,8.155.648,2.774,3.576,1.022,4.721,2.131,2.312,2.239,5.364,3.659,7.15,6.457,1.661,2.6,4.124,0,3.566-1.284-1.319-3.042,4.295-7.332,2.561-12.412-.317-.928,1.034-4.813,1.913-4.808,3.135.02,1.91,20.421,9.149-.307,4.41,5.409,3.261-2.321,5.2-2.646,2.45-.412,5.305,9.527,6.377,11.744,2.231,4.616,6.833,2.14,6.312-1.381-.71-4.793,2.083-8.877,2.183-13.5,2.574.377,2.046,7.555,6.312,4.368,3.449-2.576,1.529,1.991,4.324,2.417,1.814-2.627,1.716-7.4,6.94-6.33.6.124,11.216-11.505,6-24.137-12.258-29.687-13.973-.313,29.669-43.252,21.733-21.382,30.226-20.106,33.947-39.437,20.124-104.566-20.845-133.084-31.672-170.592-1.333-4.619-7.453,2.186-3.852,8.3.838,1.425,2.187,1.782,1.259,3.656-2.7,5.448-12.3-6-15.827-6.909-3.426-.877-2.761,3.68-2.377,4.6,2.787,2.3,9.013,3.852,6.074,6.34-2.024,1.714-13.575-8.18-15.536-4.023-.907,1.924-.033,3.4,2.034,4.524,19.679,10.735,17.784,10.909,21.159,11.225,8.633.807,6.815,9,7.618,12.707,1.649,7.613-5.885,8.853-10.373,5.455-6.773-5.129-14.326-2.99-14.83-1.2-1.04,3.688,4.049,1.219,15.228,12.55,13.277,13.457,23.2,6.441,21.662,13.8-.707,3.387-2.617,25.169-2.586,27,.179,10.654-7.626,46.274-8.275,54.494-1.28,16.222-16.561,22.262-22.553,26.737-1.183.883-23.7,16.616-23.664,14.4.045-2.5-2.231-4.43-1.645-6.739,1.866-7.349-4.256-19.217-.58-37.7a6.247,6.247,0,0,0,0-3.335c-5.712-14.083-1.141-21.314-11.046-35.736-12.865-18.735-16.719-10.96-31.688-22.177a4.04,4.04,0,0,0-3.863-.784c-15.293,5.055-34.107,5.052-38.941,20.336-1.879,5.941-5.762,4.391-7.421,8.608-4.185,10.632-8.822,10.776-11.315,19.956-4.833,17.791-2.535,36.418-1.819,38.935a6.343,6.343,0,0,1-1.41,5.334c-2.192,2.783-2.247,7.25-6.57,8.412-.3.082-.355,1.108-.6,1.954-6.335-6.073-5.866-13.116-9.046-19.021C309.622,232.974,302.8,239.6,302.8,183.528c.331-30.47,22.769-72.833,38.771-97.961,2.089-3.28,5.062-3.264,8.233-2.523,18.708,4.371,17.462.6,29.034.317,11.52-.285,6.011-7.716-.2-7.337-3.938.24-3.322-3.313-4.909-4.93-.755-.769,3.881-6.289,5.239-6.376,6.063-.39,23.441,6.431,28.67,4.623,10.146-3.507-12.5-6.626-13.632-10.38-.641-2.126,6.43-4.413,7.036-4.736,1.608-.857,2.26-2.2,3.576-3.393,2.415-2.188,5.783.079,7.285-3.62,1.187-2.925-2.557-4.29-5.606-2.5-.086.051-30.842,4.228-40.134,8.893C341.73,65.87,338.8,58.835,318.4,87.419c-4.229,5.926-9.2-1-11.427,6.982-3.367,12.039-11.035,13.379-18.766,27.212l-15.952,28.563c-5.508,12.042-8.432,7.084-10.992,21.315-.109.6,6.64,62.082,9.138,73.043,18.5,81.173,9.056,80.972,2.957,87.294-22.8,23.629.631,40.323-19.192,98.641-2.1,6.171-7.7,9.206-13.036,12.523-78.482,48.819,7.911-.632-182.162,71.912-22.321,8.519-25.731,4.748-23.663,14.858,5.544,27.1,16.135,57.891,33.146,80.472,46.027,61.1,28.022,30.246,53.444,15.7,8.941-5.115,10.464-11.964,17.6-8.663,9.929,4.594,22.684,1.58,32.081-3.009,14.833-7.243,12.027,4.245,30.777,4.817,6.6.2,25.04,4.584,43.1,5.092,12.232.344,12.463-6.16,17.318-9.242,13.43-8.526,14.007-14.829,19.737-14.893,17.961-.2,21.866-6.314,24.247-2.714,0,0,20.677,107.042,38.556,136.036,16.216,26.3,17.362,50.916,19.718,77.27.054.6,5.756,69.365,5.473,81.711-.014.6-7.5,59.439-9.815,65.574-1.155,3.055-3.526,5.47-4.72,8.487-1.048,2.648-.9,5.307-2.7,7.769-1.629,2.235-3.957,3.614-5.205,6.028-3.379,6.531-4.74,17.149,1.895,22.332,11.905,9.3,27.721-.087,37.257-8.347,8.4-7.275,12.362-16.362,18.175-25.484,4.511-7.079,9.617-13.94,15.918-19.541,8.988-7.99,22.177-13.087,27.7-24.488,5.468-11.3-6.519-18.689-15.42-22.831-36.1-16.8,10.983-79.085-19.007-167.842-2.634-7.8-6.837-15.043-8.255-23.26-.928-5.377-1.689-10.8-3.827-15.86-4.764-11.275,4.763-40.683-3.279-69.035-2.673-9.422,23.078,3.548,25.349,3.811,11.459,1.327,28.025,1.774,40.865.121,69.369-8.932,64.572-38.146,82.9-20.418,11.489,11.115,16.868-1.256,22.645,3.627,1.64,1.386,2.493,4.518,5.315,3.871,9.677-2.219,37.14-26.339,38.278-64.883C615.009,536.74,614.079,533.044,609.45,532.4Z" transform="translate(10116.856 6917.661)"/></g></svg>