<svg xmlns="http://www.w3.org/2000/svg" xmlns:xlink="http://www.w3.org/1999/xlink" viewBox="6527 5882 1920 2739"><defs><style>.a{clip-path:url(#c);}.b,.c{stroke:#707070;}.b{fill:url(#a);}.c{fill:#fff;}.d{fill:#fffcfc;}</style><linearGradient id="a" y1="0.204" x2="1" y2="0.875" gradientUnits="objectBoundingBox"><stop offset="0" stop-color="#ee86ee"/><stop offset="1" stop-color="#f60054"/></linearGradient><clipPath id="c"><rect x="6527" y="5882" width="1920" height="2739"/></clipPath></defs><g id="b" class="a"><rect class="d" x="6527" y="5882" width="1920" height="2739"/><path class="b" d="M4736.287,3674.945c11.484-38.351-1172.969,811.044-1033.948,1212.254S4907.18,5860.8,4913.8,5951.743s-209.258-2101.47-209.258-2101.47S4724.8,3713.3,4736.287,3674.945Z" transform="translate(3796.009 2509.735)"/><path class="c" d="M699.6,632.988c-4.766-.7-29.559-4.746-34.434-9.2-3.032-2.769-4.49,1.636-11.317-1.81-16.651-8.4-25.372-.984-44.413-11.99-7.137-4.126-3.985-1.426-16.025-4.723-6.419-1.757-11.758-6.5-18.691-6.936-.7-.044-206.936-70.21-183.3-83.591,4.833-2.736,6.624-7.653,9.315-11.887,31.007-48.79,29.551-35.114,41.453-52.638,1.187-1.747,2.156-1.049,2.944.37,1.863,3.357,5.057,5.818,5.958,9.834.75,3.346,4.137,1.232,5.461,2.569,2.675,2.7,6.205,4.413,8.272,7.787,1.922,3.139,4.771,0,4.125-1.548-1.526-3.669,4.969-8.842,2.963-14.968-.366-1.119,1.2-5.8,2.214-5.8,3.627.025,2.21,24.627,10.584-.37,5.1,6.522,3.773-2.8,6.014-3.191,2.834-.5,6.138,11.489,7.377,14.162,2.581,5.566,7.905,2.581,7.3-1.665-.821-5.78,2.409-10.7,2.526-16.276,2.978.454,2.367,9.111,7.3,5.267,3.99-3.107,1.769,2.4,5,2.914,2.1-3.168,1.986-8.925,8.029-7.634.7.149,12.976-13.874,6.942-29.107-14.181-35.8-16.166-.378,34.324-52.159,25.142-25.785,34.968-24.246,39.272-47.558,23.281-126.1-24.115-160.49-36.641-205.721-1.542-5.57-8.622,2.636-4.457,10.015.97,1.718,2.53,2.149,1.456,4.409-3.121,6.57-14.228-7.24-18.31-8.332-3.964-1.058-3.194,4.438-2.75,5.551,3.225,2.774,10.427,4.645,7.027,7.646-2.342,2.066-15.7-9.864-17.974-4.852-1.049,2.32-.038,4.1,2.353,5.456,22.767,12.946,20.574,13.156,24.478,13.536,9.987.974,7.884,10.853,8.813,15.324,1.907,9.181-6.808,10.677-12,6.579-7.835-6.185-16.573-3.605-17.157-1.449-1.2,4.448,4.685,1.471,17.616,15.134,15.359,16.228,26.837,7.767,25.06,16.641-.818,4.085-3.028,30.352-2.992,32.556.208,12.848-8.823,55.8-9.573,65.716-1.481,19.563-19.159,26.846-26.091,32.243-1.368,1.065-27.423,20.037-27.377,17.368.052-3.012-2.581-5.342-1.9-8.127,2.158-8.863-4.924-23.174-.671-45.459a7.842,7.842,0,0,0,0-4.022c-6.608-16.984-1.32-25.7-12.779-43.1-14.883-22.593-19.342-13.217-36.659-26.743a4.529,4.529,0,0,0-4.469-.945c-17.692,6.1-39.458,6.092-45.049,24.523-2.174,7.165-6.666,5.295-8.586,10.38-4.842,12.822-10.206,12.995-13.09,24.065-5.591,21.454-2.932,43.918-2.1,46.952a7.884,7.884,0,0,1-1.631,6.432c-2.535,3.357-2.6,8.742-7.6,10.144-.352.1-.41,1.337-.69,2.356-7.328-7.324-6.786-15.816-10.465-22.938-21.845-42.281-29.739-34.292-29.739-101.91.382-36.745,26.341-87.831,44.854-118.134,2.416-3.955,5.856-3.936,9.525-3.042,21.643,5.271,20.2.728,33.588.383,13.327-.344,6.954-9.3-.234-8.848-4.555.289-3.843-3.995-5.68-5.945-.873-.928,4.49-7.584,6.061-7.69,7.014-.471,27.118,7.755,33.168,5.575,11.738-4.23-14.462-7.991-15.77-12.517-.741-2.563,7.439-5.322,8.139-5.711,1.861-1.034,2.614-2.653,4.137-4.091,2.794-2.639,6.69.1,8.427-4.366,1.373-3.527-2.958-5.173-6.486-3.016-.1.061-35.68,5.1-46.43,10.725-28.261,14.791-31.655,6.308-55.255,40.778-4.893,7.147-10.638-1.2-13.219,8.419-3.9,14.518-12.766,16.134-21.71,32.816l-18.454,34.445c-6.372,14.522-9.755,8.543-12.716,25.7-.126.728,7.681,74.867,10.572,88.085,21.407,97.888,10.477,97.646,3.421,105.27-26.382,28.5.73,48.627-22.2,118.954-2.427,7.441-8.911,11.1-15.081,15.1-90.793,58.872,9.152-.762-210.739,86.72-25.823,10.273-29.768,5.726-27.375,17.917C41.8,662.491,54.05,699.622,73.73,726.853c53.248,73.678,32.418,36.475,61.828,18.931,10.343-6.169,12.106-14.427,20.362-10.447,11.486,5.539,26.242,1.905,37.114-3.629,17.16-8.734,13.913,5.119,35.605,5.809,7.637.243,28.968,5.529,49.859,6.141,14.151.415,14.418-7.429,20.034-11.146,15.537-10.282,16.2-17.882,22.833-17.959,20.778-.241,25.3-7.614,28.051-3.273,0,0,23.921,129.085,44.6,164.05,18.76,31.713,20.085,61.4,22.811,93.182.062.728,6.659,83.649,6.332,98.538-.016.728-8.672,71.679-11.355,79.077-1.336,3.684-4.079,6.6-5.461,10.235-1.212,3.194-1.046,6.4-3.122,9.369-1.885,2.7-4.578,4.359-6.022,7.269-3.909,7.876-5.484,20.68,2.192,26.931,13.773,11.214,32.07-.105,43.1-10.065,9.718-8.773,14.3-19.731,21.026-30.732,5.218-8.536,11.126-16.811,18.415-23.565,10.4-9.635,25.657-15.781,32.042-29.531,6.326-13.622-7.542-22.538-17.839-27.533-41.765-20.259,12.707-95.371-21.988-202.4-3.047-9.4-7.91-18.141-9.55-28.05-1.073-6.484-1.954-13.024-4.427-19.126-5.511-13.6,5.51-49.061-3.794-83.251-3.092-11.363,26.7,4.279,29.325,4.6,13.257,1.6,32.421,2.139,47.276.146,80.251-10.771,74.7-46,95.9-24.623,13.291,13.4,19.514-1.514,26.2,4.374,1.9,1.671,2.884,5.448,6.149,4.668,11.2-2.675,42.966-31.762,44.283-78.244C706.031,638.227,704.956,633.77,699.6,632.988Z" transform="translate(7679.888 6627.461)"/></g></svg>